<?xml version="1.0" encoding="utf-8"?>
<!-- Generated by IcoMoon.io -->
<!DOCTYPE svg PUBLIC "-//W3C//DTD SVG 1.1//EN" "http://www.w3.org/Graphics/SVG/1.1/DTD/svg11.dtd">
<svg version="1.1" xmlns="http://www.w3.org/2000/svg" xmlns:xlink="http://www.w3.org/1999/xlink" width="20" height="20" viewBox="0 0 20 20">
<path d="M17.5 9h-1c-0.276 0-0.5-0.224-0.5-0.5s0.224-0.5 0.5-0.5h1c0.276 0 0.5 0.224 0.5 0.5s-0.224 0.5-0.5 0.5z" fill="#000000"></path>
<path d="M17.5 13h-1c-0.276 0-0.5-0.224-0.5-0.5s0.224-0.5 0.5-0.5h1c0.276 0 0.5 0.224 0.5 0.5s-0.224 0.5-0.5 0.5z" fill="#000000"></path>
<path d="M17.5 17h-1c-0.276 0-0.5-0.224-0.5-0.5s0.224-0.5 0.5-0.5h1c0.276 0 0.5 0.224 0.5 0.5s-0.224 0.5-0.5 0.5z" fill="#000000"></path>
<path d="M20 7.5c0-0.637-0.251-1.566-0.572-2.116l-2.492-4.272c-0.37-0.634-1.202-1.112-1.936-1.112h-10c-0.734 0-1.566 0.478-1.936 1.112l-2.492 4.272c-0.321 0.55-0.572 1.479-0.572 2.116v2c0 0.384 0.145 0.734 0.383 1-0.238 0.266-0.383 0.616-0.383 1v2c0 0.384 0.145 0.734 0.383 1-0.238 0.266-0.383 0.616-0.383 1v3c0 0.827 0.673 1.5 1.5 1.5h17c0.827 0 1.5-0.673 1.5-1.5v-3c0-0.384-0.145-0.734-0.383-1 0.238-0.266 0.383-0.616 0.383-1v-2c0-0.384-0.145-0.734-0.383-1 0.238-0.266 0.383-0.616 0.383-1v-2zM19 11.5v2c0 0.276-0.224 0.5-0.5 0.5h-17c-0.276 0-0.5-0.224-0.5-0.5v-2c0-0.276 0.224-0.5 0.5-0.5h17c0.276 0 0.5 0.224 0.5 0.5zM1.5 10c-0.276 0-0.5-0.224-0.5-0.5v-2c0-0.276 0.224-0.5 0.5-0.5h17c0.276 0 0.5 0.224 0.5 0.5v2c0 0.276-0.224 0.5-0.5 0.5h-17zM3.928 1.616c0.188-0.322 0.699-0.616 1.072-0.616h10c0.373 0 0.884 0.293 1.072 0.616l2.492 4.272c0.021 0.036 0.042 0.076 0.063 0.118-0.042-0.004-0.084-0.006-0.127-0.006h-17c-0.043 0-0.085 0.002-0.127 0.006 0.021-0.042 0.042-0.081 0.063-0.118l2.492-4.272zM19 18.5c0 0.276-0.224 0.5-0.5 0.5h-17c-0.276 0-0.5-0.224-0.5-0.5v-3c0-0.276 0.224-0.5 0.5-0.5h17c0.276 0 0.5 0.224 0.5 0.5v3z" fill="#000000"></path>
<path d="M3 12.5c0 0.276-0.224 0.5-0.5 0.5s-0.5-0.224-0.5-0.5c0-0.276 0.224-0.5 0.5-0.5s0.5 0.224 0.5 0.5z" fill="#000000"></path>
<path d="M5 12.5c0 0.276-0.224 0.5-0.5 0.5s-0.5-0.224-0.5-0.5c0-0.276 0.224-0.5 0.5-0.5s0.5 0.224 0.5 0.5z" fill="#000000"></path>
<path d="M7 12.5c0 0.276-0.224 0.5-0.5 0.5s-0.5-0.224-0.5-0.5c0-0.276 0.224-0.5 0.5-0.5s0.5 0.224 0.5 0.5z" fill="#000000"></path>
<path d="M9 12.5c0 0.276-0.224 0.5-0.5 0.5s-0.5-0.224-0.5-0.5c0-0.276 0.224-0.5 0.5-0.5s0.5 0.224 0.5 0.5z" fill="#000000"></path>
<path d="M15 8.5c0 0.276-0.224 0.5-0.5 0.5s-0.5-0.224-0.5-0.5c0-0.276 0.224-0.5 0.5-0.5s0.5 0.224 0.5 0.5z" fill="#000000"></path>
<path d="M15 12.5c0 0.276-0.224 0.5-0.5 0.5s-0.5-0.224-0.5-0.5c0-0.276 0.224-0.5 0.5-0.5s0.5 0.224 0.5 0.5z" fill="#000000"></path>
<path d="M15 16.5c0 0.276-0.224 0.5-0.5 0.5s-0.5-0.224-0.5-0.5c0-0.276 0.224-0.5 0.5-0.5s0.5 0.224 0.5 0.5z" fill="#000000"></path>
</svg>
